PathFileType	4	(X/Y/Z)	C:/Users/beibeiliu/ov580/test_trc\sequence.26_training_dense_left.trc
DataRate	CameraRate	NumFrames	NumMarkers	Units	OrigDataRate	OrigDataStartFrame	OrigNumFrames
120	120	11	19	mm	120	201	400
Frame#	Time	ThumbCMC			ThumbMCP			ThumbIP			ThumbTip			IndexMCP			IndexPIP			IndexTip			MiddleMCP			MiddlePIP			MiddleTip			RingMCP			RingPIP			RingTip			PinkyMCP			PinkyPIP			PinkyTip			BackHand1			BackHand2			BackHand3	
		X0	Y0	Z0	X1	Y1	Z1	X2	Y2	Z2	X3	Y3	Z3	X4	Y4	Z4	X5	Y5	Z5	X6	Y6	Z6	X7	Y7	Z7	X8	Y8	Z8	X9	Y9	Z9	X10	Y10	Z10	X11	Y11	Z11	X12	Y12	Z12	X13	Y13	Z13	X14	Y14	Z14	X15	Y15	Z15	X16	Y16	Z16	X17	Y17	Z17	X18	Y18	Z18	
200	1.66667	-209.336	50.5543	12.5629	-192.877	41.7071	-3.66256	-175.822	39.0103	-18.7157	-165.835	35.8458	-32.5828	-218.513	21.7198	-46.4745	-209.632	0.745722	-33.7077	-208.88	15.4195	-4.9137	-236.545	16.0226	-40.7923	-220.456	-4.38301	-20.2207	-226.206	19.2465	-0.532178	-249.096	14.6906	-38.3387	-237.769	-7.08157	-25.5899	-232.198	11.8504	-2.69367	-276.568	22.8267	-30.531	-282.77	12.5469	-44.682	-293.946	4.20497	-60.3218	-260.485	50.6257	-5.5338	-261.381	58.1666	19.4923	-237.401	64.0056	4.674	
201	1.675	-201.509	45.4035	13.3039	-183.971	34.9836	2.37556	-172.263	31.1556	-14.0839	-159.562	26.401	-27.4893	-215.094	23.0286	-45.1466	-211.443	-2.56917	-31.1635	-209.24	9.8899	-7.28712	-229.257	16.2825	-43.6392	-222.695	-5.17988	-21.5226	-222.579	17.0185	-0.69698	-249.909	13.0419	-41.4013	-239.021	-6.53148	-23.8034	-233.88	11.8203	-1.58906	-274.861	28.7048	-33.5548	-282.964	19.3789	-49.7394	-289.169	13.2024	-63.18	-253.171	53.5729	-10.425	-250.424	60.8425	20.1159	-227.018	63.5989	5.2884	
202	1.68333	-196.657	39.9599	17.6824	-184.691	28.6497	-3.54341	-169.114	23.1783	-16.6314	-153.342	17.2799	-26.2921	-206.737	23.9197	-45.7955	-207.874	-4.75725	-34.3964	-209.607	8.14012	-8.86027	-224.792	19.1866	-44.5939	-220.718	-6.65852	-24.4759	-222.657	14.4141	-1.99229	-241.228	18.6471	-43.8114	-235.955	-3.59381	-32.0427	-230.329	8.58626	-6.75629	-268.335	34.297	-39.0602	-274.347	29.191	-49.8067	-283.926	24.6617	-66.7572	-242.427	55.4686	-11.2235	-241.365	63.3482	16.8051	-218.273	59.4993	1.07605	
203	1.69167	-191.219	34.5566	14.1199	-177.398	20.5033	-2.74692	-163.346	13.9758	-16.7471	-154.311	8.67434	-28.1857	-205.592	21.3119	-47.1381	-207.796	-6.03687	-38.4851	-208.989	6.98848	-9.68337	-222.659	20.055	-45.2582	-222.428	-6.53463	-28.6313	-216.744	12.2036	-4.52241	-242.015	22.2616	-44.5036	-235.65	-1.967	-29.9081	-231.863	11.2881	-5.24737	-260.312	41.5238	-36.9756	-268.729	36.0164	-55.495	-274.626	33.5667	-69.6343	-238.042	57.6601	-11.9987	-238.673	64.2585	17.6558	-207.793	56.4907	2.19534	
204	1.7	-192.605	29.4124	14.0632	-177.735	14.0655	-1.65552	-168.122	5.83897	-14.2158	-152.092	-2.1232	-29.044	-201.009	13.8019	-48.6516	-214.148	-6.29238	-36.3213	-208.457	8.02924	-9.66748	-223.258	19.2815	-46.9724	-227.574	-6.48673	-32.8893	-222.198	12.0125	-5.35618	-236.215	24.1154	-46.7348	-237.571	-0.600904	-32.6721	-233.048	8.076	-9.96324	-255.196	46.3855	-38.7988	-262.794	42.0864	-56.2499	-271.364	41.9097	-71.9853	-227.964	57.6888	-10.4217	-227.995	61.4662	16.6876	-203.954	54.3518	4.05876	
205	1.70833	-187.344	22.3684	14.7604	-179.409	7.39746	1.79713	-166.361	-1.196	-17.7603	-153.142	-10.8233	-25.3663	-199.725	16.1393	-46.9102	-211.437	-9.34288	-36.7974	-209.865	4.59793	-10.4572	-217.603	18.6528	-48.241	-230.522	-4.74943	-33.178	-220.377	12.757	-5.78284	-237.315	25.2594	-49.9905	-240.791	1.38921	-35.1652	-230.285	7.39771	-12.6752	-248.309	50.7187	-44.9145	-256.302	47.3637	-58.2836	-259.127	48.5354	-74.6624	-221.517	59.3266	-10.4713	-227.052	62.1512	16.9791	-200.908	51.0912	4.66013	
206	1.71667	-189.057	18.1588	13.891	-180.998	2.15097	-0.210849	-169.901	-7.02542	-17.0142	-153.425	-18.6794	-27.3848	-200.754	15.3072	-47.7138	-214.296	-8.67418	-36.48	-209.337	3.47286	-10.3615	-216.12	17.4619	-48.136	-231.872	-1.91201	-32.9762	-219.44	10.4867	-6.91227	-232.945	30.3384	-48.8296	-238.955	4.28642	-38.2625	-232.473	13.3816	-11.1088	-242.527	53.6372	-40.1545	-248.454	51.947	-60.3007	-252.023	53.6649	-80.8892	-215.748	58.32	-9.73674	-221.518	61.7954	19.8041	-194.918	45.4071	3.79572	
207	1.725	-191.273	14.812	17.0204	-183.668	-3.40612	1.44558	-170.244	-13.6997	-15.0188	-159.035	-25.8535	-21.7224	-198.392	11.5826	-47.9649	-214.742	-7.62241	-39.765	-211.968	2.20877	-12.7976	-215.994	19.1195	-47.9394	-231.892	-0.246151	-34.5118	-220.478	13.4489	-5.35538	-225.933	29.3426	-49.1148	-241.466	10.384	-39.4333	-231.609	13.2811	-13.9554	-239.158	59.1497	-42.6529	-243.586	58.8858	-59.8052	-248.477	58.739	-79.7015	-211.611	57.0753	-7.26463	-214.58	60.9558	18.162	-194.007	43.1299	9.39532	
208	1.73333	-194.005	9.89706	19.3415	-187.579	-5.38167	-0.15595	-174.07	-20.4535	-12.6381	-163.099	-33.7414	-22.8715	-198.949	12.2958	-47.1174	-217.032	-8.3265	-39.2758	-214.054	2.33555	-12.6007	-213.47	22.2471	-47.2019	-231.457	1.85054	-33.9501	-219.249	16.5838	-4.84737	-226.288	35.5621	-48.7266	-237.026	10.6648	-36.9959	-230.183	17.5956	-11.1863	-228.523	60.0814	-43.0687	-235.273	60.29	-62.8336	-237.622	62.4544	-76.1383	-208.916	55.9569	-3.96727	-213.325	58.9598	21.2203	-193.418	40.9706	9.76412	
209	1.74167	-196.669	6.9838	19.3497	-192.401	-9.75868	3.87044	-178.301	-24.4828	-14.0341	-170.528	-36.5485	-20.7955	-194.8	11.5426	-44.1744	-219.019	-3.65317	-40.7313	-215.385	5.66409	-12.3873	-212.9	23.6391	-46.694	-233.835	4.82627	-32.8561	-218.105	12.0936	-4.88463	-219.653	35.1965	-47.5212	-236.386	13.7583	-40.3858	-228.747	18.6648	-11.1739	-225.114	63.4446	-41.5724	-229.541	65.2042	-60.102	-229.903	65.9695	-80.7065	-204.635	56.6499	-3.47194	-206.886	54.9639	19.3901	-191.074	38.5972	13.2345	
210	1.75	-197.051	3.66467	17.4924	-196.156	-13.6724	2.16177	-185.539	-26.7388	-13.5815	-175.588	-43.2229	-19.855	-194.715	4.68179	-45.873	-220.042	-6.74581	-39.4325	-217.577	3.6035	-13.4443	-210.785	20.271	-46.6557	-231.402	5.44038	-37.0663	-218.63	15.285	-4.49393	-218.823	36.4995	-47.711	-233.84	17.0327	-41.6977	-229.324	18.5349	-13.5881	-218.064	65.4028	-39.2138	-220.373	65.8756	-59.6168	-218.194	66.4638	-78.3899	-199.027	52.9603	0.753049	-208.544	53.683	25.6264	-188.46	31.795	11.4969	
